<mxfile host="app.diagrams.net" modified="2023-12-17T19:45:29.030Z" agent="Mozilla/5.0 (Windows NT 10.0; Win64; x64) AppleWebKit/537.36 (KHTML, like Gecko) Chrome/120.0.0.0 Safari/537.36" etag="LEJ-X3lbAk7F0u8Kr1CQ" version="22.1.11" type="device">
  <diagram name="Pagina-1" id="gTgShQ79xlWHM4BhMIFA">
    <mxGraphModel dx="1534" dy="851" grid="1" gridSize="10" guides="1" tooltips="1" connect="1" arrows="1" fold="1" page="1" pageScale="1" pageWidth="1169" pageHeight="827" math="0" shadow="0">
      <root>
        <mxCell id="0" />
        <mxCell id="1" parent="0" />
        <mxCell id="1OhWma3IbFcb_nB9q1dT-1" value="&lt;font color=&quot;#0d0d0d&quot;&gt;Datore di Lavoro&lt;/font&gt;" style="shape=umlActor;verticalLabelPosition=bottom;verticalAlign=top;html=1;fillColor=#FFFFFC;strokeColor=#0D0D0D;" parent="1" vertex="1">
          <mxGeometry x="114" y="52" width="40" height="80" as="geometry" />
        </mxCell>
        <mxCell id="1OhWma3IbFcb_nB9q1dT-13" value="" style="endArrow=none;dashed=1;html=1;rounded=0;strokeColor=#0D0D0D;" parent="1" source="1OhWma3IbFcb_nB9q1dT-21" edge="1">
          <mxGeometry width="50" height="50" relative="1" as="geometry">
            <mxPoint x="374.65999999999997" y="572" as="sourcePoint" />
            <mxPoint x="374.65999999999997" y="132" as="targetPoint" />
          </mxGeometry>
        </mxCell>
        <mxCell id="1OhWma3IbFcb_nB9q1dT-14" value="" style="endArrow=none;dashed=1;html=1;rounded=0;entryX=0.499;entryY=0.996;entryDx=0;entryDy=0;strokeColor=#0D0D0D;entryPerimeter=0;" parent="1" target="1OhWma3IbFcb_nB9q1dT-37" edge="1">
          <mxGeometry width="50" height="50" relative="1" as="geometry">
            <mxPoint x="559" y="220" as="sourcePoint" />
            <mxPoint x="559.5390400000002" y="129.00000000000003" as="targetPoint" />
          </mxGeometry>
        </mxCell>
        <mxCell id="1OhWma3IbFcb_nB9q1dT-15" value="" style="endArrow=none;dashed=1;html=1;rounded=0;strokeColor=#0D0D0D;entryX=0.587;entryY=1.046;entryDx=0;entryDy=0;entryPerimeter=0;" parent="1" source="1OhWma3IbFcb_nB9q1dT-30" edge="1">
          <mxGeometry width="50" height="50" relative="1" as="geometry">
            <mxPoint x="820.75" y="608" as="sourcePoint" />
            <mxPoint x="820.4499999999998" y="135.68000000000006" as="targetPoint" />
          </mxGeometry>
        </mxCell>
        <mxCell id="1OhWma3IbFcb_nB9q1dT-16" value="" style="endArrow=none;dashed=1;html=1;rounded=0;entryX=0.5;entryY=1;entryDx=0;entryDy=0;strokeColor=#0D0D0D;" parent="1" source="1OhWma3IbFcb_nB9q1dT-52" target="1OhWma3IbFcb_nB9q1dT-36" edge="1">
          <mxGeometry width="50" height="50" relative="1" as="geometry">
            <mxPoint x="990" y="727" as="sourcePoint" />
            <mxPoint x="989.5799999999999" y="297" as="targetPoint" />
          </mxGeometry>
        </mxCell>
        <mxCell id="1OhWma3IbFcb_nB9q1dT-17" value="" style="endArrow=none;dashed=1;html=1;rounded=0;strokeColor=#0D0D0D;" parent="1" source="1OhWma3IbFcb_nB9q1dT-18" edge="1">
          <mxGeometry width="50" height="50" relative="1" as="geometry">
            <mxPoint x="133.66" y="602" as="sourcePoint" />
            <mxPoint x="133.66" y="162" as="targetPoint" />
          </mxGeometry>
        </mxCell>
        <mxCell id="1OhWma3IbFcb_nB9q1dT-19" value="" style="endArrow=none;dashed=1;html=1;rounded=0;strokeColor=#0D0D0D;" parent="1" target="1OhWma3IbFcb_nB9q1dT-18" edge="1">
          <mxGeometry width="50" height="50" relative="1" as="geometry">
            <mxPoint x="134" y="960" as="sourcePoint" />
            <mxPoint x="133.66" y="162" as="targetPoint" />
          </mxGeometry>
        </mxCell>
        <mxCell id="1OhWma3IbFcb_nB9q1dT-18" value="" style="rounded=0;whiteSpace=wrap;html=1;fillColor=none;" parent="1" vertex="1">
          <mxGeometry x="129" y="172" width="10" height="748" as="geometry" />
        </mxCell>
        <mxCell id="1OhWma3IbFcb_nB9q1dT-20" value="" style="endArrow=classic;html=1;rounded=0;strokeColor=#0D0D0D;entryX=0;entryY=0.5;entryDx=0;entryDy=0;" parent="1" target="1OhWma3IbFcb_nB9q1dT-21" edge="1">
          <mxGeometry width="50" height="50" relative="1" as="geometry">
            <mxPoint x="140" y="210" as="sourcePoint" />
            <mxPoint x="284" y="212" as="targetPoint" />
          </mxGeometry>
        </mxCell>
        <mxCell id="1OhWma3IbFcb_nB9q1dT-22" value="" style="endArrow=none;dashed=1;html=1;rounded=0;strokeColor=#0D0D0D;" parent="1" target="1OhWma3IbFcb_nB9q1dT-21" edge="1">
          <mxGeometry width="50" height="50" relative="1" as="geometry">
            <mxPoint x="375" y="960" as="sourcePoint" />
            <mxPoint x="374.65999999999997" y="132" as="targetPoint" />
          </mxGeometry>
        </mxCell>
        <mxCell id="1OhWma3IbFcb_nB9q1dT-21" value="" style="rounded=0;whiteSpace=wrap;html=1;strokeColor=default;fillColor=none;" parent="1" vertex="1">
          <mxGeometry x="370" y="170" width="10" height="82" as="geometry" />
        </mxCell>
        <mxCell id="1OhWma3IbFcb_nB9q1dT-23" value="&lt;span style=&quot;font-size: 10px;&quot;&gt;&lt;b style=&quot;&quot;&gt;&lt;font face=&quot;Verdana&quot;&gt;1.click()&lt;/font&gt;&lt;/b&gt;&lt;/span&gt;" style="text;html=1;strokeColor=none;fillColor=none;align=center;verticalAlign=middle;whiteSpace=wrap;rounded=0;fontColor=#0D0D0D;" parent="1" vertex="1">
          <mxGeometry x="236.75" y="196" width="40" height="11" as="geometry" />
        </mxCell>
        <mxCell id="1OhWma3IbFcb_nB9q1dT-25" value="" style="endArrow=none;dashed=1;html=1;rounded=0;strokeColor=#0D0D0D;" parent="1" source="1OhWma3IbFcb_nB9q1dT-35" target="1OhWma3IbFcb_nB9q1dT-24" edge="1">
          <mxGeometry width="50" height="50" relative="1" as="geometry">
            <mxPoint x="559.75" y="946" as="sourcePoint" />
            <mxPoint x="559.66" y="178" as="targetPoint" />
          </mxGeometry>
        </mxCell>
        <mxCell id="1OhWma3IbFcb_nB9q1dT-24" value="" style="rounded=0;whiteSpace=wrap;html=1;strokeColor=default;fillColor=none;" parent="1" vertex="1">
          <mxGeometry x="555" y="221" width="10" height="37" as="geometry" />
        </mxCell>
        <mxCell id="1OhWma3IbFcb_nB9q1dT-26" value="" style="endArrow=classic;html=1;rounded=0;fontColor=#0D0D0D;strokeColor=#0D0D0D;" parent="1" edge="1">
          <mxGeometry width="50" height="50" relative="1" as="geometry">
            <mxPoint x="140" y="310.16" as="sourcePoint" />
            <mxPoint x="811" y="310" as="targetPoint" />
          </mxGeometry>
        </mxCell>
        <mxCell id="1OhWma3IbFcb_nB9q1dT-28" value="&lt;font color=&quot;#0d0d0d&quot; style=&quot;font-size: 10px;&quot; face=&quot;Verdana&quot;&gt;&lt;b&gt;&amp;lt;&amp;lt;create&amp;gt;&amp;gt;&lt;/b&gt;&lt;/font&gt;" style="endArrow=open;endSize=12;dashed=1;html=1;rounded=0;strokeColor=#0D0D0D;labelBackgroundColor=none;" parent="1" edge="1">
          <mxGeometry x="-0.0164" y="11" width="160" relative="1" as="geometry">
            <mxPoint x="380" y="225.99999999999994" as="sourcePoint" />
            <mxPoint x="550" y="226" as="targetPoint" />
            <mxPoint as="offset" />
          </mxGeometry>
        </mxCell>
        <mxCell id="1OhWma3IbFcb_nB9q1dT-29" value="&lt;font style=&quot;font-size: 10px;&quot; face=&quot;Verdana&quot;&gt;&lt;b&gt;&amp;lt;&amp;lt;create&amp;gt;&amp;gt;&lt;/b&gt;&lt;/font&gt;" style="endArrow=open;endSize=12;dashed=1;html=1;rounded=0;strokeColor=#0D0D0D;fontColor=#0D0D0D;labelBackgroundColor=#FFFFFC;" parent="1" edge="1">
          <mxGeometry x="-0.0191" y="12" width="160" relative="1" as="geometry">
            <mxPoint x="565" y="247.42999999999995" as="sourcePoint" />
            <mxPoint x="808" y="248" as="targetPoint" />
            <mxPoint as="offset" />
          </mxGeometry>
        </mxCell>
        <mxCell id="1OhWma3IbFcb_nB9q1dT-31" value="" style="endArrow=none;dashed=1;html=1;rounded=0;strokeColor=#0D0D0D;" parent="1" source="1OhWma3IbFcb_nB9q1dT-56" target="1OhWma3IbFcb_nB9q1dT-30" edge="1">
          <mxGeometry width="50" height="50" relative="1" as="geometry">
            <mxPoint x="820.75" y="687" as="sourcePoint" />
            <mxPoint x="820.41" y="168" as="targetPoint" />
          </mxGeometry>
        </mxCell>
        <mxCell id="1OhWma3IbFcb_nB9q1dT-30" value="" style="rounded=0;whiteSpace=wrap;html=1;strokeColor=default;fillColor=none;" parent="1" vertex="1">
          <mxGeometry x="815.75" y="240" width="10" height="390" as="geometry" />
        </mxCell>
        <mxCell id="1OhWma3IbFcb_nB9q1dT-32" value="&lt;font face=&quot;Verdana&quot;&gt;&lt;font style=&quot;font-size: 10px;&quot;&gt;&lt;b style=&quot;&quot;&gt;2.fillOfferForm&lt;/b&gt;(&lt;br&gt;&lt;/font&gt;&lt;span style=&quot;white-space: pre;&quot;&gt;&#x9;&lt;/span&gt;title, type,&amp;nbsp;description,&amp;nbsp;&lt;span style=&quot;font-size: 11px;&quot;&gt;skills, &lt;br&gt;&lt;span style=&quot;white-space: pre;&quot;&gt;&#x9;&lt;/span&gt;profession, location,&lt;/span&gt;&lt;span style=&quot;font-size: 11px;&quot;&gt;languages&lt;/span&gt;&lt;font style=&quot;font-size: 10px;&quot;&gt;&lt;br&gt;)&lt;/font&gt;&lt;/font&gt;" style="text;html=1;strokeColor=none;fillColor=none;align=left;verticalAlign=middle;whiteSpace=wrap;rounded=0;labelBackgroundColor=none;fontColor=#0D0D0D;" parent="1" vertex="1">
          <mxGeometry x="139" y="252" width="240" height="58" as="geometry" />
        </mxCell>
        <mxCell id="1OhWma3IbFcb_nB9q1dT-33" value="" style="endArrow=classic;html=1;rounded=0;strokeColor=#0D0D0D;" parent="1" edge="1">
          <mxGeometry width="50" height="50" relative="1" as="geometry">
            <mxPoint x="139" y="413" as="sourcePoint" />
            <mxPoint x="810" y="413" as="targetPoint" />
          </mxGeometry>
        </mxCell>
        <mxCell id="1OhWma3IbFcb_nB9q1dT-34" value="&lt;font face=&quot;Verdana&quot; style=&quot;font-size: 11px;&quot;&gt;&lt;b style=&quot;&quot;&gt;2.1submit&lt;/b&gt;()&lt;/font&gt;" style="text;html=1;strokeColor=none;fillColor=none;align=left;verticalAlign=middle;whiteSpace=wrap;rounded=0;fontColor=#0D0D0D;" parent="1" vertex="1">
          <mxGeometry x="150.75" y="382" width="86" height="32" as="geometry" />
        </mxCell>
        <mxCell id="1OhWma3IbFcb_nB9q1dT-36" value="Offer" style="ellipse;shape=umlEntity;whiteSpace=wrap;html=1;strokeColor=#0D0D0D;fontColor=#0D0D0D;fillColor=#FFFFFC;" parent="1" vertex="1">
          <mxGeometry x="960" y="52" width="80" height="80" as="geometry" />
        </mxCell>
        <mxCell id="1OhWma3IbFcb_nB9q1dT-37" value="CreateOffer&lt;br&gt;Control" style="ellipse;shape=umlControl;whiteSpace=wrap;html=1;strokeColor=#0D0D0D;fontColor=#0D0D0D;fillColor=#FFFFFC;" parent="1" vertex="1">
          <mxGeometry x="520.69" y="39" width="77.62" height="90" as="geometry" />
        </mxCell>
        <mxCell id="1OhWma3IbFcb_nB9q1dT-38" value="&lt;font color=&quot;#0d0d0d&quot;&gt;OfferButton&lt;/font&gt;" style="shape=umlBoundary;whiteSpace=wrap;html=1;strokeColor=#0D0D0D;fillColor=#FFFFFC;" parent="1" vertex="1">
          <mxGeometry x="317" y="49" width="100" height="80" as="geometry" />
        </mxCell>
        <mxCell id="1OhWma3IbFcb_nB9q1dT-39" value="OfferForm" style="shape=umlBoundary;whiteSpace=wrap;html=1;strokeColor=#0D0D0D;fontColor=#0D0D0D;fillColor=#FFFFFC;" parent="1" vertex="1">
          <mxGeometry x="760" y="49" width="100" height="80" as="geometry" />
        </mxCell>
        <mxCell id="1OhWma3IbFcb_nB9q1dT-41" value="&lt;font face=&quot;Verdana&quot;&gt;&lt;font style=&quot;font-size: 10px;&quot;&gt;[ &lt;br&gt;&lt;span style=&quot;white-space: pre;&quot;&gt;&#x9;&lt;/span&gt;title != null type != null &amp;amp;&amp;amp; &lt;span style=&quot;white-space: pre;&quot;&gt;&#x9;&lt;/span&gt;description != null &amp;amp;&amp;amp;&lt;br&gt;&lt;span style=&quot;white-space: pre;&quot;&gt;&#x9;&lt;/span&gt;skill &amp;gt;= 1 &amp;amp;&amp;amp;&amp;nbsp; profession &amp;gt;= 1 &amp;amp;&amp;amp;&lt;br&gt;&lt;span style=&quot;white-space: pre;&quot;&gt;&#x9;&lt;/span&gt;location != null &amp;amp;&amp;amp; languages &amp;gt;= 1&lt;br&gt;]: &lt;b style=&quot;&quot;&gt;3.1 createOffer&lt;/b&gt;(&lt;br&gt;&lt;span style=&quot;white-space: pre;&quot;&gt;&amp;nbsp;&amp;nbsp;&amp;nbsp;&amp;nbsp;&lt;span style=&quot;white-space: pre;&quot;&gt;&#x9;&lt;/span&gt;&lt;/span&gt;&lt;/font&gt;&lt;font style=&quot;font-size: 10px;&quot;&gt;title, type, description,&lt;/font&gt;&lt;br&gt;&lt;span style=&quot;font-size: 10px;&quot;&gt;&lt;span style=&quot;&quot;&gt;&lt;span style=&quot;white-space: pre;&quot;&gt;&amp;nbsp;&amp;nbsp;&amp;nbsp;&amp;nbsp;&lt;span style=&quot;white-space: pre;&quot;&gt;&#x9;&lt;/span&gt;&lt;/span&gt;&lt;/span&gt;skills,&amp;nbsp;&lt;/span&gt;&lt;span style=&quot;font-size: 10px;&quot;&gt;profession,&lt;span style=&quot;white-space: pre;&quot;&gt;&amp;nbsp;&lt;/span&gt;&lt;/span&gt;&lt;span style=&quot;font-size: 10px;&quot;&gt;location,&lt;/span&gt;&lt;br style=&quot;font-size: 10px;&quot;&gt;&lt;span style=&quot;font-size: 10px;&quot;&gt;&lt;span style=&quot;&quot;&gt;&amp;nbsp;&amp;nbsp;&amp;nbsp;&amp;nbsp;&lt;span style=&quot;white-space: pre;&quot;&gt;&amp;nbsp;&amp;nbsp;&amp;nbsp;&amp;nbsp;&lt;/span&gt;&lt;/span&gt;&lt;/span&gt;&lt;span style=&quot;font-size: 10px;&quot;&gt;languages&lt;/span&gt;&lt;font style=&quot;font-size: 10px;&quot;&gt;&lt;br&gt;)&lt;/font&gt;&lt;/font&gt;" style="text;html=1;strokeColor=none;fillColor=none;align=left;verticalAlign=middle;whiteSpace=wrap;rounded=0;fontColor=#0D0D0D;" parent="1" vertex="1">
          <mxGeometry x="584.75" y="457.5" width="211" height="170" as="geometry" />
        </mxCell>
        <mxCell id="1OhWma3IbFcb_nB9q1dT-47" value="" style="endArrow=classic;html=1;rounded=0;strokeColor=#0D0D0D;" parent="1" edge="1">
          <mxGeometry width="50" height="50" relative="1" as="geometry">
            <mxPoint x="809.87" y="627.5" as="sourcePoint" />
            <mxPoint x="570.62" y="627.5" as="targetPoint" />
          </mxGeometry>
        </mxCell>
        <mxCell id="1OhWma3IbFcb_nB9q1dT-49" value="" style="endArrow=classic;html=1;rounded=0;strokeColor=#0D0D0D;" parent="1" edge="1">
          <mxGeometry width="50" height="50" relative="1" as="geometry">
            <mxPoint x="567.72" y="826.1700000000001" as="sourcePoint" />
            <mxPoint x="810" y="826" as="targetPoint" />
          </mxGeometry>
        </mxCell>
        <mxCell id="1OhWma3IbFcb_nB9q1dT-50" value="&lt;font face=&quot;Verdana&quot;&gt;&lt;span style=&quot;font-size: 10px;&quot;&gt;&lt;b&gt;&amp;lt;&amp;lt;destroy&amp;gt;&amp;gt;&lt;/b&gt;&lt;/span&gt;&lt;/font&gt;" style="text;html=1;strokeColor=none;fillColor=none;align=center;verticalAlign=middle;whiteSpace=wrap;rounded=0;fontColor=#0D0D0D;" parent="1" vertex="1">
          <mxGeometry x="635.22" y="809" width="40" height="11" as="geometry" />
        </mxCell>
        <mxCell id="1OhWma3IbFcb_nB9q1dT-53" value="" style="endArrow=none;dashed=1;html=1;rounded=0;entryX=0.5;entryY=1;entryDx=0;entryDy=0;strokeColor=#0D0D0D;" parent="1" target="1OhWma3IbFcb_nB9q1dT-52" edge="1">
          <mxGeometry width="50" height="50" relative="1" as="geometry">
            <mxPoint x="1000" y="960" as="sourcePoint" />
            <mxPoint x="990" y="288" as="targetPoint" />
          </mxGeometry>
        </mxCell>
        <mxCell id="1OhWma3IbFcb_nB9q1dT-52" value="" style="rounded=0;whiteSpace=wrap;html=1;" parent="1" vertex="1">
          <mxGeometry x="995" y="740" width="10" height="40" as="geometry" />
        </mxCell>
        <mxCell id="1OhWma3IbFcb_nB9q1dT-54" value="" style="endArrow=classic;html=1;rounded=0;strokeColor=#0D0D0D;entryX=0;entryY=0.5;entryDx=0;entryDy=0;" parent="1" target="1OhWma3IbFcb_nB9q1dT-52" edge="1">
          <mxGeometry width="50" height="50" relative="1" as="geometry">
            <mxPoint x="565" y="760" as="sourcePoint" />
            <mxPoint x="924.75" y="760.5" as="targetPoint" />
          </mxGeometry>
        </mxCell>
        <mxCell id="1OhWma3IbFcb_nB9q1dT-55" value="" style="endArrow=none;dashed=1;html=1;rounded=0;strokeColor=#0D0D0D;" parent="1" source="1OhWma3IbFcb_nB9q1dT-56" edge="1">
          <mxGeometry width="50" height="50" relative="1" as="geometry">
            <mxPoint x="820.75" y="687" as="sourcePoint" />
            <mxPoint x="820" y="820" as="targetPoint" />
          </mxGeometry>
        </mxCell>
        <mxCell id="1OhWma3IbFcb_nB9q1dT-51" value="" style="shape=umlDestroy;whiteSpace=wrap;html=1;strokeWidth=3;targetShapes=umlLifeline;strokeColor=#0D0D0D;" parent="1" vertex="1">
          <mxGeometry x="805.75" y="809" width="30" height="30" as="geometry" />
        </mxCell>
        <mxCell id="1OhWma3IbFcb_nB9q1dT-58" value="&lt;font face=&quot;Verdana&quot;&gt;&lt;b style=&quot;font-size: 11px;&quot;&gt;3.2 addOffer&lt;/b&gt;(&lt;br style=&quot;font-size: 11px;&quot;&gt;&lt;span style=&quot;font-size: 11px;&quot;&gt;&lt;span style=&quot;white-space: pre;&quot;&gt;&amp;nbsp;&amp;nbsp;&amp;nbsp;&amp;nbsp;&lt;/span&gt;&lt;/span&gt;&lt;span style=&quot;font-size: 11px;&quot;&gt;title, type,&amp;nbsp; description,&lt;/span&gt;&lt;br style=&quot;font-size: 11px;&quot;&gt;&lt;span style=&quot;font-size: 11px;&quot;&gt;&lt;span style=&quot;white-space: pre;&quot;&gt;&amp;nbsp;&amp;nbsp;&amp;nbsp;&amp;nbsp;&lt;/span&gt;&lt;/span&gt;&lt;span style=&quot;font-size: 11px;&quot;&gt;skills, profession, location,&lt;/span&gt;&lt;br style=&quot;font-size: 11px;&quot;&gt;&lt;span style=&quot;font-size: 11px;&quot;&gt;&lt;span style=&quot;white-space: pre;&quot;&gt;&amp;nbsp;&amp;nbsp;&amp;nbsp;&amp;nbsp;&lt;/span&gt;&lt;/span&gt;&lt;span style=&quot;font-size: 11px;&quot;&gt;languages&lt;/span&gt;&lt;br style=&quot;font-size: 11px;&quot;&gt;&lt;span style=&quot;font-size: 11px;&quot;&gt;)&lt;/span&gt;&lt;/font&gt;" style="text;html=1;strokeColor=none;fillColor=none;align=left;verticalAlign=middle;whiteSpace=wrap;rounded=0;fontColor=#0D0D0D;" parent="1" vertex="1">
          <mxGeometry x="598.31" y="658.5" width="197.44" height="99" as="geometry" />
        </mxCell>
        <mxCell id="1OhWma3IbFcb_nB9q1dT-56" value="" style="rounded=0;whiteSpace=wrap;html=1;" parent="1" vertex="1">
          <mxGeometry x="815.75" y="766" width="10" height="30" as="geometry" />
        </mxCell>
        <mxCell id="1OhWma3IbFcb_nB9q1dT-35" value="" style="rounded=0;whiteSpace=wrap;html=1;strokeColor=default;fillColor=none;" parent="1" vertex="1">
          <mxGeometry x="555" y="480" width="10" height="450" as="geometry" />
        </mxCell>
        <mxCell id="Mz2E-e2bpPvzF0OKRcCu-1" value="&lt;span style=&quot;font-size: 12px;&quot;&gt;&lt;b&gt;3.3 reportSuccess&lt;/b&gt;()&lt;/span&gt;" style="html=1;verticalAlign=bottom;endArrow=block;curved=0;rounded=0;" edge="1" parent="1">
          <mxGeometry width="80" relative="1" as="geometry">
            <mxPoint x="550" y="890" as="sourcePoint" />
            <mxPoint x="150" y="890" as="targetPoint" />
          </mxGeometry>
        </mxCell>
        <mxCell id="Mz2E-e2bpPvzF0OKRcCu-2" value="" style="shape=umlDestroy;whiteSpace=wrap;html=1;strokeWidth=3;targetShapes=umlLifeline;" vertex="1" parent="1">
          <mxGeometry x="545" y="920" width="30" height="30" as="geometry" />
        </mxCell>
      </root>
    </mxGraphModel>
  </diagram>
</mxfile>
